<svg width="61" height="61" viewBox="0 0 61 61" fill="none" xmlns="http://www.w3.org/2000/svg">
<circle cx="30.5" cy="30.5" r="30" fill="#5B0E9F"/>
<path fill-rule="evenodd" clip-rule="evenodd" d="M24.7101 32.4743L24.7324 41.4842C24.7324 42.3372 23.9814 43.024 23.0663 42.9994C22.1814 42.9735 21.5 42.2498 21.5 41.4214V20.541H21.5026C21.5026 20.5349 21.5 20.5275 21.5 20.5213C21.5 19.6844 22.2234 19.0062 23.1162 19.0062C24.0051 19.0062 24.7258 19.6794 24.7311 20.5127H24.7324V29.4414H36.2205C36.3859 29.4414 36.5198 29.3159 36.5198 29.1608C36.5198 29.1337 36.5146 29.1078 36.508 29.082L36.4975 29.0561L33.1548 21.1146C33.1496 21.1035 33.1469 21.0912 33.1417 21.0802C33.1062 20.9989 33.0773 20.9128 33.0563 20.8254C33.055 20.8192 33.055 20.8131 33.0537 20.8069C33.034 20.7121 33.0235 20.6149 33.0235 20.5152C33.0235 20.2099 33.1207 19.9268 33.2874 19.6881C33.5749 19.2745 34.0725 19 34.6384 19H34.6397C34.7408 19.0012 34.838 19.0111 34.9338 19.0283C34.964 19.0332 34.9916 19.0406 35.0205 19.048C35.0874 19.0628 35.1544 19.0812 35.2174 19.1046C35.2463 19.1145 35.2739 19.1243 35.3027 19.1366C35.3723 19.1662 35.4393 19.2006 35.5023 19.2388C35.5181 19.2486 35.5351 19.256 35.5509 19.2659C35.627 19.3151 35.6992 19.3705 35.7662 19.432C35.7846 19.448 35.799 19.4665 35.8161 19.4837C35.8647 19.5305 35.908 19.581 35.95 19.6339C35.9671 19.6585 35.9841 19.6819 36.0012 19.7065C36.038 19.7619 36.0708 19.8198 36.101 19.8788C36.1115 19.901 36.1246 19.9219 36.1338 19.9441C36.1378 19.9527 36.143 19.9613 36.147 19.9699L36.1522 19.9847L40.5413 30.2279C40.7527 30.7092 40.7527 31.2495 40.5426 31.7308L40.5413 31.732L36.1246 42.0516C36.122 42.0565 36.1194 42.0627 36.1168 42.0676L36.0997 42.107L36.0957 42.1058C35.7925 42.715 35.0756 43.1089 34.28 42.9501C33.6879 42.832 33.2073 42.3925 33.0642 41.8399C32.9749 41.4916 33.0169 41.1592 33.1496 40.8712L33.1482 40.87L36.4896 32.9161C36.5947 32.697 36.4397 32.4743 36.1824 32.4743H24.7101Z" fill="white"/>
</svg>
