<svg width="60" height="61" viewBox="0 0 60 61" fill="none" xmlns="http://www.w3.org/2000/svg">
<circle cx="30" cy="30.5" r="30" fill="#5B0E9F"/>
<path d="M30.2731 44.5C31.2929 44.5 32.2694 44.4281 33.2025 44.2844C34.1465 44.1406 35.0145 43.9305 35.8065 43.654V40.9336C35.3725 41.0995 34.868 41.2433 34.2929 41.3649C33.7288 41.4866 33.1212 41.575 32.4702 41.6303C31.83 41.6967 31.179 41.7299 30.5172 41.7299C28.2278 41.7299 26.2206 41.293 24.4955 40.4194C22.7812 39.5458 21.4412 38.2741 20.4756 36.6043C19.5208 34.9234 19.0434 32.8942 19.0434 30.5166V30.4834C19.0434 28.8136 19.3038 27.2875 19.8246 25.9052C20.3454 24.5229 21.0778 23.3341 22.0217 22.3389C22.9765 21.3436 24.1049 20.575 25.4069 20.0332C26.7089 19.4913 28.141 19.2204 29.7034 19.2204C31.7758 19.2204 33.5769 19.6351 35.1067 20.4645C36.6474 21.2828 37.8354 22.4494 38.6709 23.9645C39.5172 25.4795 39.9403 27.2709 39.9403 29.3389V29.3554C39.9403 30.4945 39.8373 31.4676 39.6311 32.2749C39.4358 33.0711 39.1537 33.6793 38.7848 34.0995C38.4268 34.5197 38.0036 34.7299 37.5154 34.7299C36.9729 34.7299 36.5443 34.4921 36.2297 34.0166C35.915 33.53 35.7577 32.8278 35.7577 31.91V23.9479H32.4539V26.0213H32.3074C31.9819 25.2694 31.4665 24.6777 30.7613 24.2464C30.0561 23.8041 29.2532 23.5829 28.3526 23.5829C27.2785 23.5829 26.3237 23.876 25.4882 24.4621C24.6528 25.0482 23.991 25.861 23.5027 26.9005C23.0253 27.9289 22.7866 29.1232 22.7866 30.4834V30.5C22.7866 31.9376 23.0199 33.1927 23.4864 34.2654C23.9638 35.327 24.6203 36.1564 25.4557 36.7536C26.302 37.3397 27.2839 37.6327 28.4014 37.6327C29.4105 37.6327 30.2948 37.3894 31.0542 36.9028C31.8137 36.4163 32.3942 35.6919 32.7957 34.7299H32.9584L33.0886 34.9953C33.4033 35.7804 33.9132 36.4218 34.6184 36.9194C35.3345 37.406 36.1971 37.6493 37.2061 37.6493C38.3454 37.6493 39.349 37.3175 40.217 36.654C41.0958 35.9795 41.7794 35.0118 42.2676 33.7512C42.7559 32.4905 43 30.9755 43 29.2062V29.1896C43 26.624 42.4412 24.3902 41.3237 22.4882C40.217 20.5861 38.6709 19.1153 36.6854 18.0758C34.7107 17.0253 32.4213 16.5 29.8174 16.5C27.7776 16.5 25.9114 16.8373 24.2188 17.5118C22.5262 18.1864 21.0669 19.143 19.8409 20.3815C18.6148 21.609 17.6655 23.0798 16.9928 24.7938C16.3309 26.4968 16 28.3823 16 30.4502V30.4668C16 32.6564 16.3418 34.6193 17.0253 36.3554C17.7197 38.0806 18.7016 39.5458 19.9711 40.7512C21.2405 41.9676 22.7486 42.8965 24.4955 43.5379C26.2423 44.1793 28.1682 44.5 30.2731 44.5ZM29.264 34.5972C28.6998 34.5972 28.2061 34.4368 27.783 34.1161C27.3707 33.7954 27.0506 33.3365 26.8228 32.7393C26.5949 32.1422 26.481 31.4234 26.481 30.5829V30.5663C26.481 29.7259 26.5949 29.0126 26.8228 28.4265C27.0506 27.8404 27.3707 27.3926 27.783 27.0829C28.2061 26.7622 28.7052 26.6019 29.2803 26.6019C30.1483 26.6019 30.8427 26.9558 31.3635 27.6635C31.8951 28.3712 32.1609 29.3333 32.1609 30.5498V30.5829C32.1609 31.8215 31.9005 32.8002 31.3797 33.519C30.859 34.2378 30.1537 34.5972 29.264 34.5972Z" fill="white"/>
</svg>
