<svg width="60" height="61" viewBox="0 0 60 61" fill="none" xmlns="http://www.w3.org/2000/svg">
<circle cx="30" cy="30.5" r="30" fill="#5B0E9F"/>
<g clip-path="url(#clip0_1267_2130)">
<path d="M25.362 40.1569C34.796 40.1569 39.956 32.3409 39.956 25.5629C39.956 25.3409 39.956 25.1199 39.941 24.8999C40.9448 24.1738 41.8114 23.2748 42.5 22.2449C41.5639 22.6597 40.5708 22.9317 39.554 23.0519C40.6245 22.4111 41.4262 21.4024 41.809 20.2149C40.8022 20.8123 39.7006 21.2334 38.552 21.4599C37.5822 20.4286 36.2277 19.8431 34.8121 19.8431C31.9956 19.8431 29.6781 22.1607 29.6781 24.9771C29.6781 25.3678 29.7227 25.7573 29.811 26.1379C25.689 25.9313 21.8432 23.9816 19.24 20.7789C17.8863 23.1093 18.5867 26.1293 20.828 27.6259C20.0118 27.6017 19.2132 27.3815 18.5 26.9839V27.0489C18.5007 29.4812 20.2308 31.5953 22.615 32.0769C21.8599 32.2828 21.0675 32.3129 20.299 32.1649C20.9693 34.2491 22.9021 35.6858 25.091 35.7269C23.2751 37.154 21.0306 37.9292 18.721 37.9269C18.3129 37.9261 17.9052 37.9014 17.5 37.8529C19.8454 39.358 22.5752 40.1566 25.362 40.1529" fill="white"/>
</g>
<defs>
<clipPath id="clip0_1267_2130">
<rect width="25" height="25" fill="white" transform="translate(17.5 17.5)"/>
</clipPath>
</defs>
</svg>
