<svg width="61" height="61" viewBox="0 0 61 61" fill="none" xmlns="http://www.w3.org/2000/svg">
<circle cx="30.5" cy="30.5" r="30" fill="#5B0E9F"/>
<path fill-rule="evenodd" clip-rule="evenodd" d="M35.6446 18.495H25.3546C24.4071 18.495 23.6396 19.2625 23.6396 20.21V40.79C23.6396 41.7375 24.4071 42.505 25.3546 42.505H35.6446C36.5922 42.505 37.3596 41.7375 37.3596 40.79V20.21C37.3596 19.2625 36.5922 18.495 35.6446 18.495ZM30.4996 40.79C30.0263 40.79 29.6421 40.4058 29.6421 39.9325C29.6421 39.4592 30.0263 39.075 30.4996 39.075C30.973 39.075 31.3571 39.4592 31.3571 39.9325C31.3571 40.4058 30.973 40.79 30.4996 40.79ZM25.3546 38.2175H35.6446V21.0675H25.3546V38.2175Z" fill="white"/>
</svg>
