<svg width="60" height="61" viewBox="0 0 60 61" fill="none" xmlns="http://www.w3.org/2000/svg">
<circle cx="30" cy="30.5" r="30" fill="#5B0E9F"/>
<path d="M29.9282 25.4524C26.5949 25.4524 23.833 28.1667 23.833 31.5476C23.833 34.9286 26.5473 37.6429 29.9282 37.6429C33.3092 37.6429 36.0235 34.881 36.0235 31.5476C36.0235 28.2143 33.2616 25.4524 29.9282 25.4524ZM29.9282 35.4524C27.7854 35.4524 26.0235 33.6905 26.0235 31.5476C26.0235 29.4048 27.7854 27.6429 29.9282 27.6429C32.0711 27.6429 33.833 29.4048 33.833 31.5476C33.833 33.6905 32.0711 35.4524 29.9282 35.4524Z" fill="white"/>
<path d="M36.2618 26.6905C37.0245 26.6905 37.6428 26.0722 37.6428 25.3095C37.6428 24.5469 37.0245 23.9286 36.2618 23.9286C35.4991 23.9286 34.8809 24.5469 34.8809 25.3095C34.8809 26.0722 35.4991 26.6905 36.2618 26.6905Z" fill="white"/>
<path d="M39.8334 21.7381C38.5953 20.4524 36.8334 19.7857 34.8334 19.7857H25.0239C20.881 19.7857 18.1191 22.5476 18.1191 26.6905V36.4524C18.1191 38.5 18.7858 40.2619 20.1191 41.5476C21.4049 42.7857 23.1191 43.4048 25.0715 43.4048H34.7858C36.8334 43.4048 38.5477 42.7381 39.7858 41.5476C41.0715 40.3095 41.7382 38.5476 41.7382 36.5V26.6905C41.7382 24.6905 41.0715 22.9762 39.8334 21.7381ZM39.6429 36.5C39.6429 37.9762 39.1191 39.1667 38.262 39.9762C37.4049 40.7857 36.2144 41.2143 34.7858 41.2143H25.0715C23.643 41.2143 22.4525 40.7857 21.5953 39.9762C20.7382 39.119 20.3096 37.9286 20.3096 36.4524V26.6905C20.3096 25.2619 20.7382 24.0714 21.5953 23.2143C22.4049 22.4048 23.643 21.9762 25.0715 21.9762H34.881C36.3096 21.9762 37.5001 22.4048 38.3572 23.2619C39.1668 24.119 39.6429 25.3095 39.6429 26.6905V36.5Z" fill="white"/>
</svg>
