<svg width="15" height="14" viewBox="0 0 15 14" fill="none" xmlns="http://www.w3.org/2000/svg">
<path d="M7.49998 0.333298C3.81998 0.333298 0.833313 3.31996 0.833313 6.99996C0.833313 10.68 3.81998 13.6666 7.49998 13.6666C11.18 13.6666 14.1666 10.68 14.1666 6.99996C14.1666 3.31996 11.18 0.333298 7.49998 0.333298ZM7.49998 12.3333C4.55998 12.3333 2.16665 9.93996 2.16665 6.99996C2.16665 4.05996 4.55998 1.66663 7.49998 1.66663C10.44 1.66663 12.8333 4.05996 12.8333 6.99996C12.8333 9.93996 10.44 12.3333 7.49998 12.3333ZM7.70665 6.42663C6.52665 6.12663 6.14665 5.79996 6.14665 5.3133C6.14665 4.7533 6.67331 4.35996 7.54665 4.35996C8.46665 4.35996 8.81331 4.79996 8.83998 5.4533H9.97998C9.94665 4.55996 9.39998 3.73996 8.31998 3.4733V2.3333H6.76665V3.45996C5.75998 3.6733 4.95331 4.32663 4.95331 5.3333C4.95331 6.52663 5.94665 7.12663 7.39331 7.4733C8.69331 7.77996 8.95331 8.23996 8.95331 8.71996C8.95331 9.0733 8.69331 9.64663 7.55331 9.64663C6.48665 9.64663 6.06665 9.16663 6.00665 8.5533H4.85998C4.92665 9.68663 5.76665 10.3266 6.76665 10.5333V11.6666H8.32665V10.5533C9.33998 10.36 10.14 9.77997 10.1466 8.70663C10.14 7.23996 8.87998 6.7333 7.70665 6.42663Z" fill="white"/>
</svg>
